<?xml version="1.0" encoding="UTF-8"?>
<svg width="38px" height="38px" viewBox="0 0 38 38" version="1.1" xmlns="http://www.w3.org/2000/svg" xmlns:xlink="http://www.w3.org/1999/xlink">
    <!-- Generator: Sketch 64 (93537) - https://sketch.com -->
    <title>Untitled</title>
    <desc>Created with Sketch.</desc>
    <g id="Page-1" stroke="none" stroke-width="1" fill="none" fill-rule="evenodd">
        <g id="plus" fill="#000000" fill-rule="nonzero">
            <path d="M19,38 C16.1422273,38 13.8181818,35.6984091 13.8181818,32.8691364 L13.8181818,24.1818182 L5.13086364,24.1818182 C2.30159091,24.1818182 0,21.8577727 0,19 C0,16.1422273 2.30159091,13.8181818 5.13086364,13.8181818 L13.8181818,13.8181818 L13.8181818,5.13086364 C13.8181818,2.30159091 16.1422273,0 19,0 C21.8577727,0 24.1818182,2.30159091 24.1818182,5.13086364 L24.1818182,13.8181818 L32.8691364,13.8181818 C35.6984091,13.8181818 38,16.1422273 38,19 C38,21.8577727 35.6984091,24.1818182 32.8691364,24.1818182 L24.1818182,24.1818182 L24.1818182,32.8691364 C24.1818182,35.6984091 21.8577727,38 19,38 Z M5.13086364,15.5454545 C3.28613636,15.5454545 1.72727273,17.1276364 1.72727273,19 C1.72727273,20.8723636 3.28613636,22.4545455 5.13086364,22.4545455 L15.5454545,22.4545455 L15.5454545,32.8691364 C15.5454545,34.7138636 17.1276364,36.2727273 19,36.2727273 C20.8723636,36.2727273 22.4545455,34.7138636 22.4545455,32.8691364 L22.4545455,22.4545455 L32.8691364,22.4545455 C34.7138636,22.4545455 36.2727273,20.8723636 36.2727273,19 C36.2727273,17.1276364 34.7138636,15.5454545 32.8691364,15.5454545 L22.4545455,15.5454545 L22.4545455,5.13086364 C22.4545455,3.28613636 20.8723636,1.72727273 19,1.72727273 C17.1276364,1.72727273 15.5454545,3.28613636 15.5454545,5.13086364 L15.5454545,15.5454545 L5.13086364,15.5454545 Z" id="Shape"></path>
        </g>
    </g>
</svg>